<svg viewBox="0 0 485 136" fill="none" xmlns="http://www.w3.org/2000/svg" id="logo">
    <path d="M32.3389 63.2583C33.687 54.4469 38.1898 46.4196 45.0151 40.6596C51.8404 34.8996 60.5269 31.7963 69.4697 31.923H94.0857L65.3844 3.31923C64.7209 2.63811 63.9101 2.11685 63.0139 1.79532C62.1177 1.47378 61.1598 1.36037 60.2129 1.46377C43.3505 3.46409 27.8723 11.75 16.8882 24.6567C5.90407 37.5634 0.227845 54.1344 1.00002 71.0407C2.1376 88.5166 9.95868 104.892 22.8514 116.791C35.7441 128.691 52.7259 135.208 70.2971 135H81.1572C81.8429 135 82.5006 134.728 82.9855 134.245C83.4704 133.762 83.7429 133.106 83.7429 132.423V104.077H68.2286C63.0726 104.077 57.976 102.98 53.2799 100.859C48.5838 98.7375 44.3966 95.6407 40.9986 91.7761C37.6006 87.9114 35.0703 83.368 33.5768 78.4498C32.0833 73.5316 31.6612 68.3522 32.3389 63.2583ZM112.858 0.99994H96.6714C95.9857 0.99994 95.328 1.27147 94.8431 1.75474C94.3582 2.23801 94.0857 2.89342 94.0857 3.57686V31.923H113.53C122.473 31.7963 131.16 34.8996 137.985 40.6596C144.81 46.4196 149.313 54.4469 150.661 63.2583C151.339 68.3522 150.917 73.5316 149.423 78.4498C147.93 83.368 145.399 87.9114 142.001 91.7761C138.603 95.6407 134.416 98.7375 129.72 100.859C125.024 102.98 119.927 104.077 114.771 104.077H83.7429L112.858 133.093C113.458 133.699 114.175 134.176 114.967 134.495C115.758 134.814 116.607 134.968 117.461 134.948C126.337 134.605 135.057 132.511 143.117 128.789C151.176 125.067 158.416 119.79 164.417 113.263C170.418 106.736 175.062 99.0879 178.08 90.7616C181.098 82.4353 182.43 73.5955 182 64.753C180.838 47.3318 173.024 31.016 160.164 19.1587C147.305 7.30143 130.376 0.803338 112.858 0.99994Z" fill="var(--blue)" />
    <path fill-rule="evenodd" clip-rule="evenodd" d="M256.193 74.4288L266.287 76.1281L266.044 77.2504C263.67 88.1878 253.119 96 241.089 96C225.36 96 213.929 84.202 214 67.9975C214.002 51.8016 225.355 40 241.089 40C253.155 40 263.682 48.2013 266.046 59.5394L266.288 60.7047L256.078 61.9603L255.853 61.0132C254.286 54.4212 248.127 49.5682 241.159 49.5682C231.517 49.5682 224.598 57.1448 224.598 68C224.598 78.8521 231.585 86.4318 241.159 86.4318C248.003 86.4318 254.17 81.7703 255.933 75.3748L256.193 74.4288ZM277.136 94.2251V41.7749H301.132C312.444 41.7749 320.91 48.6998 320.91 58.8414C320.91 65.595 316.337 71.4607 309.894 73.7406L322.551 94.2251H310.352L299.457 75.411H287.733V94.2251H277.136ZM307.569 53.1093C305.813 51.7652 303.252 50.9881 300.148 50.9881H287.733V66.4108H300.148C306.313 66.4108 310.312 63.0182 310.312 58.8414C310.312 56.3435 309.294 54.4293 307.569 53.1093ZM360.093 41.7749L378.575 94.2251H367.341L363.757 83.5756H342.537L339.022 94.2251H327.781L346.337 41.7749H360.093ZM353.215 53.4412L345.411 75.0724H361.018L353.215 53.4412ZM397.693 41.7749V94.2251H387.095V41.7749H397.693ZM453.484 72.8505L435.578 72.7798V63.9259H463.948L464.026 64.9333C464.713 73.8471 462.256 81.6225 457.416 87.1805C452.571 92.7436 445.412 96 436.87 96C420.543 96 408.727 84.2377 408.727 68C408.727 51.7624 420.543 40 436.87 40C447.91 40 457.895 46.3821 460.813 55.451L461.161 56.5316L451.38 59.3159L451.036 58.3627C449.254 53.4128 443.401 49.5682 436.87 49.5682C431.698 49.5682 427.328 51.4841 424.25 54.7096C421.169 57.9377 419.325 62.5377 419.325 68C419.325 78.7176 426.745 86.4318 437.011 86.4318C445.719 86.4318 452.584 80.5179 453.484 72.8505Z" fill="currentcolor" />
    <path fill-rule="evenodd" clip-rule="evenodd" d="M479.209 95.2762C475.882 95.2762 473.418 92.8102 473.418 89.4982C473.418 87.8433 474.012 86.383 475.07 85.3365C476.126 84.2921 477.584 83.7202 479.209 83.7202C480.834 83.7202 482.292 84.2921 483.348 85.3365C484.407 86.383 485 87.8433 485 89.4982C485 92.8102 482.537 95.2762 479.209 95.2762Z" fill="currentcolor" />
</svg>